<svg width="118" height="43" viewBox="0 0 118 43" fill="none" xmlns="http://www.w3.org/2000/svg">
    <path d="M0.747925 32.8805V0H3.91679V15.2145H7.89298L12.3586 1.02364H15.435L10.7709 16.2545C15.435 19.5518 14.6411 27.2222 14.6411 32.8805H12.3586C12.3586 27.6191 13.1525 22.558 9.77848 18.6878H3.91679V32.8805H0.747925Z"
          fill="#E9F6FF"/>
    <path d="M17.1342 33.6821V22.304C17.1342 22.304 17.1342 22.3596 17.1342 16.8023C17.1342 11.245 21.548 9.2075 23.8869 9.16106C27.9234 9.16106 31.8091 11.4367 31.8091 17.1954V33.6821H28.7911V17.1954C28.7534 14.0374 26.339 12.6906 24.0755 12.6906C22.642 12.6906 20.1522 13.9244 20.1522 16.8023C20.1522 19.6802 20.1522 22.7565 20.1522 22.7565V33.6821H17.1342Z"
          fill="#E9F6FF"/>
    <path d="M69.2245 26.193C69.2245 30.2798 71.5634 30.9764 73.8646 30.8836V34.1809C73.4874 34.2273 73.1101 34.2738 72.7706 34.2738C69.0736 34.2738 66.2443 31.8124 66.2443 26.193V13.2823H63.2672V9.75271H66.2443V4.27262H69.2622L69.2245 9.89204H73.1101V13.2823H69.2622L69.2245 26.193Z"
          fill="#E9F6FF"/>
    <path d="M84.0015 34.2738C80.4352 33.8094 75.9695 30.2658 76.4657 25.4359H79.4428C80.2367 28.9092 81.4362 30.4192 84.0015 30.4192C87.3967 30.4192 88.7778 29.1977 88.7778 25.343L88.8155 19.5518C87.9156 21.4022 86.1895 21.8739 84.0015 21.8739C79.1727 21.8275 75.771 18.7159 75.771 12.3999V10.1242C75.771 3.76177 79.1727 0.464422 84.0015 0.464422C88.9057 0.417981 91.8712 4.35151 91.9466 10.8069V25.4359C91.9466 31.7984 88.8679 34.2738 84.0015 34.2738ZM84.0015 18.0657C87.3967 18.0657 88.8155 16.9371 88.8155 13.0361V10.8533C88.8155 6.90579 87.3967 4.41195 84.0015 4.41195C80.6817 4.41195 78.9776 6.2696 78.9776 10.1707V12.3534C78.9776 16.2081 80.6817 18.0657 84.0015 18.0657Z"
          fill="#E9F6FF"/>
    <path d="M98.3684 7.05518C97.199 7.05518 96.2936 5.89415 96.2936 4.45446C96.2936 3.01477 97.199 1.85374 98.3684 1.85374C99.5756 1.85374 100.481 3.01477 100.481 4.45446C100.481 5.89415 99.5756 7.05518 98.3684 7.05518ZM93.6906 43.0009V39.5177C96.1804 39.4249 96.8972 37.753 96.8972 35.1987V10.2132H99.9151V35.1987C99.9151 40.0286 97.9157 42.908 93.6906 43.0009Z"
          fill="#E9F6FF"/>
    <path d="M109.896 33.3449C106.048 33.3449 102.539 31.3944 102.539 26.0536C102.539 20.8522 106.086 18.4373 109.669 18.4373C111.178 18.4373 112.838 18.8088 114.234 19.5518V15.9759C114.234 13.0036 112.008 11.6568 109.594 11.7032C107.896 11.7032 106.038 15.3138 106.435 16.9016H102.962C102.962 13.9244 104.45 9.06184 109.933 8.35946C113.63 8.31301 117.252 10.728 117.252 15.883V23.8477C117.252 23.8477 117.252 26.3942 117.252 28.3138C117.252 30.2334 112.65 33.3449 109.896 33.3449ZM109.745 30.2334C111.442 30.2334 114.234 28.5123 114.234 27.5199C114.234 26.5275 114.234 24.9397 114.234 24.9397V22.5241C113.065 21.8739 111.593 21.4559 110.047 21.4559C107.368 21.4559 105.52 23.0814 105.482 26.0536C105.482 29.0259 107.444 30.1869 109.745 30.2334Z"
          fill="#E9F6FF"/>
</svg>
